<svg width="78px" height="78px" viewBox="0 0 2.16 2.16" xmlns="http://www.w3.org/2000/svg" xmlns:xlink="http://www.w3.org/1999/xlink" aria-hidden="true" role="img" class="iconify iconify--twemoji" preserveAspectRatio="xMidYMid meet"><path fill="#8A4B38" d="M1.611 0.876C1.506 0.768 1.293 0.768 1.08 0.768s-0.426 0 -0.531 0.108C0.39 1.041 0.228 1.458 0.336 1.788s0.573 0.36 0.744 0.36S1.719 2.115 1.827 1.785 1.773 1.038 1.614 0.873"/><path fill="#A5503C" d="M1.536 0.864C1.446 0.771 1.263 0.771 1.08 0.771s-0.363 0 -0.456 0.093a0.9 0.9 0 0 0 -0.183 0.777C0.534 1.923 0.933 1.953 1.08 1.953S1.626 1.923 1.716 1.644 1.671 1.005 1.533 0.867"/><path fill="#CCD6DD" d="M1.647 0.783C1.623 0.687 1.512 0.594 1.08 0.594H1.077C0.648 0.594 0.534 0.687 0.51 0.783 0.465 0.969 0.645 1.041 1.077 1.041H1.08C1.509 1.041 1.689 0.969 1.647 0.783"/><path fill="#66757F" d="M1.536 0.741C1.554 0.783 1.425 0.84 1.077 0.84S0.6 0.783 0.618 0.741C0.636 0.693 0.849 0.648 1.077 0.648s0.438 0.045 0.459 0.093"/><path fill="#77B255" d="M0.66 0.789Q0.747 0.834 1.08 0.84 1.413 0.834 1.5 0.789C1.455 0.75 1.335 0.714 1.08 0.714S0.705 0.753 0.66 0.789"/><path fill="#FFF" d="M1.5 0.855Q1.485 0.825 1.452 0.837A1.5 1.5 0 0 1 1.08 0.876 1.5 1.5 0 0 1 0.708 0.837C0.684 0.831 0.666 0.828 0.657 0.855s0.018 0.051 0.042 0.057a1.5 1.5 0 0 0 0.384 0.045 1.5 1.5 0 0 0 0.369 -0.045C1.476 0.906 1.515 0.882 1.506 0.855"/><path fill="#CCD6DD" d="M1.374 0.822 1.692 0.345 2.01 0.12S2.019 0.102 1.962 0.06 1.881 0.036 1.881 0.036l-0.27 0.216 -0.39 0.582z"/><path fill="#99AAB5" d="M1.374 0.822 1.692 0.345 2.01 0.12 2.007 0.114 1.659 0.306 1.311 0.825 1.374 0.819"/><path fill="#99AAB5" cx="27.617" cy="4.945" r="1.668" d="M1.758 0.297a0.099 0.099 0 0 1 -0.102 0.099 0.099 0.099 0 0 1 -0.099 -0.099 0.099 0.099 0 0 1 0.201 0"/><path fill="#CCD6DD" d="M1.572 0.279a0.075 0.075 0 1 1 0.15 0 0.075 0.075 0 0 1 -0.15 0"/><path fill="#E1E8ED" d="M0.687 0.651C0.783 0.612 0.96 0.603 1.02 0.606s0.033 0.045 0 0.045a1.5 1.5 0 0 0 -0.315 0.045C0.654 0.708 0.636 0.669 0.684 0.651"/></svg>