<svg xmlns="http://www.w3.org/2000/svg" xmlns:xlink="http://www.w3.org/1999/xlink" style="background-color:#000" version="1.2" viewBox="0 0 250 250">
  <defs>
    <linearGradient id="a">
      <stop offset=".2" stop-color="#6852ad"/>
      <stop offset="1" stop-color="#fe7a36"/>
    </linearGradient>
    <linearGradient xlink:href="#a" id="b" x1="211.9" x2="139.8" y1="133.3" y2="160.4" gradientUnits="userSpaceOnUse"/>
    <linearGradient xlink:href="#a" id="c" x1="211.9" x2="139.8" y1="133.3" y2="160.4" gradientUnits="userSpaceOnUse"/>
    <linearGradient xlink:href="#a" id="d" x1="211.9" x2="139.8" y1="133.3" y2="160.4" gradientUnits="userSpaceOnUse"/>
  </defs>
  <g fill="url(#b)" stroke-width="1.5" font-size="288" font-weight="bold" transform="translate(20 20) scale(.83977)">
    <path fill="url(#c)" d="M152.2 30.5v129.2q0 6.5-2 12.3-2 5.6-5.5 9.7-3.6 4.1-8.8 6.5-5 2.3-11.2 2.3-7.7 0-13-2-5.5-2-8.8-6.3-2.5-3.4-3.8-8.4-1.3-5-1.3-11.7H61.7q.1 14.5 4.7 25.2 4.6 10.8 13 17.8 8.2 7.2 19.7 10.8 11.5 3.6 25.6 3.6 13.3 0 24.8-4.4 11.7-4.3 20.2-12.3 8.6-7.9 13.5-18.8 5-11 5.1-24.3l-.1-129.2Z"/>
    <path fill="url(#d)" d="M97.8 127.5a18 18 0 0 1-18 18 18 18 0 0 1-18.1-18 18 18 0 0 1 18-18 18 18 0 0 1 18 18z"/>
  </g>
</svg>
