<svg xmlns="http://www.w3.org/2000/svg">
  <symbol id="linkedin" viewBox="0 0 64.791 64.788791">
    <path d="M55.205 55.204412h-9.6v-15.034c0-3.585-.064-8.2-4.993-8.2-5 0-5.765 3.906-5.765 7.939v15.294h-9.6v-30.916h9.216v4.225h.129a10.1 10.1 0 0 1 9.093-4.994c9.73 0 11.524 6.4 11.524 14.726zm-40.79-35.143a5.571 5.571 0 1 1 5.57-5.572 5.571 5.571 0 0 1-5.57 5.572m4.8 35.143h-9.61v-30.917h9.61zM59.991.00441201H4.781A4.728 4.728 0 0 0 0 4.674412v55.439a4.731 4.731 0 0 0 4.781 4.675h55.21a4.741 4.741 0 0 0 4.8-4.675v-55.443a4.738 4.738 0 0 0-4.8-4.67"/>
  </symbol>
</svg>